<?xml version="1.0" encoding="UTF-8"?> <svg xmlns="http://www.w3.org/2000/svg" xmlns:xlink="http://www.w3.org/1999/xlink" version="1.1" id="Layer_1" x="0px" y="0px" viewBox="0 0 910 245" style="enable-background:new 0 0 910 245;" xml:space="preserve"> <style type="text/css"> .st0{fill:#14379F;} </style> <g> <g> <path class="st0" d="M200.4,172.1c0,6.7-1.9,12.1-5.7,16.1c-3.8,4-8.6,6-14.4,6c-5.8,0-10.6-2-14.4-6c-3.8-4-5.7-9.4-5.7-16.1 V75.9c0-14.3-3.2-27.1-9.6-38.4c-6.4-11.3-15.1-20-26.3-26.3C113.1,5,100.5,1.8,86.4,1.8S59.7,5,48.6,11.2 c-11.2,6.2-19.9,15-26.3,26.3c-6.4,11.3-9.6,24.1-9.6,38.4v163.9h53.6V72.6c0-6.7,1.9-12.1,5.7-16.1c3.8-4,8.6-6,14.4-6 s10.6,2,14.4,6s5.7,9.4,5.7,16.1v97.2c0,13.9,3.2,26.4,9.6,37.5c6.4,11.2,15.1,19.9,26.3,26.3c11.2,6.4,23.8,9.6,37.9,9.6 s26.7-3.2,37.9-9.6c11.2-6.4,19.9-15.1,26.3-26.3c6.4-11.2,9.6-23.7,9.6-37.5V5.2h-53.6V172.1z"></path> </g> <g> <polygon class="st0" points="293.5,57.1 293.5,187.9 293.5,239.8 347.1,239.8 347.1,187.9 347.1,57.1 347.1,5.2 293.5,5.2 "></polygon> </g> <g> <path class="st0" d="M843.7,5.2v166.9c0,6.7-1.9,12.1-5.7,16.1s-8.6,6-14.4,6c-5.8,0-10.6-2-14.4-6c-3.8-4-5.7-9.4-5.7-16.1V75.9 c0-14.3-3.2-27.1-9.5-38.4c-6.4-11.3-15.1-20-26.3-26.3c-11.2-6.3-23.8-9.4-37.9-9.4S703,5,691.8,11.2c-11.2,6.3-20,15-26.3,26.3 c-6.4,11.3-9.5,24.1-9.5,38.4v163.9h53.6V72.6c0-6.7,1.9-12.1,5.7-16.1s8.6-6,14.4-6s10.6,2,14.4,6s5.7,9.4,5.7,16.1v97.2 c0,13.9,3.2,26.4,9.5,37.5c6.4,11.2,15.1,19.9,26.3,26.3c11.2,6.4,23.8,9.6,37.9,9.6s26.7-3.2,37.9-9.6 c11.2-6.4,19.9-15.1,26.3-26.3c6.4-11.2,9.5-23.7,9.5-37.5V5.2H843.7z"></path> </g> <g> <g> <path class="st0" d="M562.9,5.2v22.6c-18.6-12.4-35.3-25.9-72-25.9c-65.4,0-115.9,54-115.9,120.7c0,66.7,50.5,120.7,115.9,120.7 c38,0,53.4-13.5,72-25.9v22.6h53.6v-52V57.1v-52H562.9z M561.9,128.1c0,21.4-6.5,38.7-19.6,51.9c-13,13.2-29.1,19.8-48.2,19.8 c-21.8,0-38.4-6.9-49.9-20.8c-11.5-13.9-17.3-32-17.3-54.4c0-22.1,5.9-40.1,17.6-53.9c11.7-13.9,28.3-20.8,49.7-20.8 c12.4,0,23.8,3.2,34.1,9.5c10.4,6.4,18.6,15.2,24.6,26.6c6,11.4,9,24.3,9,38.6L561.9,128.1L561.9,128.1z"></path> </g> </g> </g> </svg> 